<?xml version="1.0" encoding="iso-8859-1"?>
<!-- Generator: Adobe Illustrator 19.0.0, SVG Export Plug-In . SVG Version: 6.00 Build 0)  -->
<svg version="1.1" id="Capa_1" xmlns="http://www.w3.org/2000/svg" xmlns:xlink="http://www.w3.org/1999/xlink" x="0px" y="0px"
	 viewBox="0 0 512 512" style="enable-background:new 0 0 512 512;" xml:space="preserve">
<path style="fill:#618BAA;" d="M408.024,17.884v78.572h-35.758V17.884C372.266,8.015,380.271,0,390.15,0
	c4.935,0,9.406,1.998,12.64,5.244C406.036,8.489,408.024,12.949,408.024,17.884z"/>
<rect x="372.27" y="71.3" style="fill:#4E7693;" width="35.758" height="25.16"/>
<path style="fill:#BADB47;" d="M408.029,17.88v16.092h-35.76V17.88c0-9.865,8.003-17.88,17.88-17.88
	c4.932,0,9.409,1.997,12.639,5.241C406.031,8.484,408.029,12.948,408.029,17.88z"/>
<path style="fill:#618BAA;" d="M446.192,97.96v51.633H334.108V97.96c0-7.891,6.397-14.299,14.288-14.299h83.507
	C439.795,83.661,446.192,90.069,446.192,97.96z"/>
<g>
	<path style="fill:#4E7693;" d="M361.788,138.016c-4.268,0-7.726-3.459-7.726-7.726v-20.962c0-4.267,3.459-7.726,7.726-7.726
		s7.726,3.459,7.726,7.726v20.962C369.514,134.556,366.055,138.016,361.788,138.016z"/>
	<path style="fill:#4E7693;" d="M390.149,138.016c-4.268,0-7.726-3.459-7.726-7.726v-20.962c0-4.267,3.459-7.726,7.726-7.726
		s7.726,3.459,7.726,7.726v20.962C397.875,134.556,394.417,138.016,390.149,138.016z"/>
	<path style="fill:#4E7693;" d="M418.51,138.016c-4.268,0-7.726-3.459-7.726-7.726v-20.962c0-4.267,3.459-7.726,7.726-7.726
		s7.726,3.459,7.726,7.726v20.962C426.236,134.556,422.778,138.016,418.51,138.016z"/>
	<rect x="334.11" y="117.92" style="fill:#4E7693;" width="112.08" height="31.668"/>
</g>
<path style="fill:#E3F4FF;" d="M477.695,152.106v262.181c0,12.043-9.766,21.809-21.809,21.809H324.414
	c-12.053,0-21.819-9.766-21.819-21.809V152.106c0-1.504,0.155-2.967,0.443-4.378c2.019-9.952,10.827-17.441,21.376-17.441h131.472
	C467.929,130.287,477.695,140.053,477.695,152.106z"/>
<g>
	<path style="fill:#BDDFF4;" d="M477.695,152.106v262.181c0,12.043-9.766,21.809-21.809,21.809h-63.943
		c68.497-88.997,50.499-270.175,46.162-305.809h17.781C467.929,130.287,477.695,140.053,477.695,152.106z"/>
	<path style="fill:#BDDFF4;" d="M355.917,228v208.097h-31.503c-12.053,0-21.819-9.766-21.819-21.809V152.106
		c0-1.504,0.155-2.967,0.443-4.378c12.166,2.462,21.366,13.248,21.366,26.136v20.078C342.01,195.312,355.917,210.054,355.917,228z"
		/>
</g>
<rect x="302.6" y="211.12" style="fill:#BADB47;" width="175.1" height="164.56"/>
<g>
	<path style="fill:#E3F4FF;" d="M427.666,310.232h-93.377c-4.268,0-7.726-3.459-7.726-7.726s3.459-7.726,7.726-7.726h93.377
		c4.268,0,7.726,3.459,7.726,7.726C435.392,306.773,431.934,310.232,427.666,310.232z"/>
	<path style="fill:#E3F4FF;" d="M365.852,331.706h-31.563c-4.268,0-7.726-3.459-7.726-7.726s3.459-7.726,7.726-7.726h31.563
		c4.268,0,7.726,3.459,7.726,7.726C373.578,328.246,370.12,331.706,365.852,331.706z"/>
</g>
<g>
	<path style="fill:#82C11F;" d="M477.695,211.115v164.561h-54.94c17.647-52.786,21.366-115.143,20.635-164.561L477.695,211.115
		L477.695,211.115z"/>
	<path style="fill:#82C11F;" d="M355.917,228v147.676h-53.322V211.115h48.851C354.29,216.101,355.917,221.86,355.917,228z"/>
</g>
<g>
	<path style="fill:#BDDFF4;" d="M355.917,294.776v15.453h-21.624c-4.275,0-7.726-3.451-7.726-7.726c0-4.265,3.451-7.726,7.726-7.726
		L355.917,294.776L355.917,294.776z"/>
	<path style="fill:#BDDFF4;" d="M355.917,316.255v15.453h-21.624c-4.275,0-7.726-3.461-7.726-7.726s3.451-7.726,7.726-7.726
		L355.917,316.255L355.917,316.255z"/>
</g>
<path d="M334.35,270.537c-0.011,0-0.022,0-0.033,0l-0.122-0.001c-4.267-0.018-7.711-3.491-7.694-7.758
	c0.018-4.257,3.474-7.695,7.725-7.695c0.011,0,0.022,0,0.033,0l0.122,0.001c4.267,0.018,7.711,3.491,7.694,7.758
	C342.057,267.099,338.602,270.537,334.35,270.537z"/>
<path style="fill:#618BAA;" d="M139.734,17.884v78.572h-35.758V17.884C103.976,8.015,111.97,0,121.85,0
	c4.935,0,9.405,1.998,12.64,5.244C137.735,8.489,139.734,12.949,139.734,17.884z"/>
<rect x="103.98" y="71.3" style="fill:#4E7693;" width="35.758" height="25.16"/>
<path style="fill:#FDB659;" d="M139.731,17.88v16.092h-35.76V17.88c0-9.865,8.003-17.88,17.88-17.88
	c4.932,0,9.409,1.997,12.639,5.241C137.734,8.484,139.731,12.948,139.731,17.88z"/>
<path style="fill:#618BAA;" d="M177.892,97.96v51.633H65.808V97.96c0-7.891,6.397-14.299,14.289-14.299h83.506
	C171.494,83.661,177.892,90.069,177.892,97.96z"/>
<g>
	<path style="fill:#4E7693;" d="M93.49,138.016c-4.267,0-7.726-3.459-7.726-7.726v-20.962c0-4.267,3.459-7.726,7.726-7.726
		s7.726,3.459,7.726,7.726v20.962C101.216,134.556,97.757,138.016,93.49,138.016z"/>
	<path style="fill:#4E7693;" d="M121.852,138.016c-4.267,0-7.726-3.459-7.726-7.726v-20.962c0-4.267,3.459-7.726,7.726-7.726
		s7.726,3.459,7.726,7.726v20.962C129.578,134.556,126.119,138.016,121.852,138.016z"/>
	<path style="fill:#4E7693;" d="M150.213,138.016c-4.267,0-7.726-3.459-7.726-7.726v-20.962c0-4.267,3.459-7.726,7.726-7.726
		s7.726,3.459,7.726,7.726v20.962C157.939,134.556,154.48,138.016,150.213,138.016z"/>
	<rect x="65.808" y="117.92" style="fill:#4E7693;" width="112.08" height="31.668"/>
</g>
<path style="fill:#E3F4FF;" d="M209.405,152.106v262.181c0,12.043-9.766,21.809-21.819,21.809H56.114
	c-12.043,0-21.809-9.766-21.809-21.809V152.106c0-12.053,9.766-21.819,21.809-21.819h131.472c10.549,0,19.357,7.489,21.376,17.441
	C209.25,149.139,209.405,150.602,209.405,152.106z"/>
<g>
	<path style="fill:#BDDFF4;" d="M209.405,152.106v262.181c0,12.043-9.766,21.809-21.819,21.809h-60.348
		c45.864-79.056,47.223-231.935,43.875-305.809h16.473c10.549,0,19.357,7.489,21.376,17.441
		C209.25,149.139,209.405,150.602,209.405,152.106z"/>
	<path style="fill:#BDDFF4;" d="M208.962,147.728c0.288,1.411,0.443,2.874,0.443,4.378v262.181c0,12.043-9.766,21.809-21.819,21.809
		h-31.503V228c0-17.946,13.907-32.688,31.513-34.058v-20.078C187.596,160.976,196.796,150.19,208.962,147.728z"/>
</g>
<rect x="34.3" y="211.12" style="fill:#FDB659;" width="175.1" height="164.56"/>
<path style="fill:#FD9E28;" d="M209.405,211.115v164.561h-53.322V228c0-6.14,1.628-11.899,4.471-16.885H209.405z"/>
<g>
	<path style="fill:#E3F4FF;" d="M167.095,302.502c0,4.275-3.461,7.726-7.726,7.726H65.993c-4.265,0-7.726-3.451-7.726-7.726
		c0-4.265,3.461-7.726,7.726-7.726h93.376C163.634,294.776,167.095,298.237,167.095,302.502z"/>
	<path style="fill:#E3F4FF;" d="M97.555,331.706H65.991c-4.267,0-7.726-3.459-7.726-7.726s3.459-7.726,7.726-7.726h31.564
		c4.267,0,7.726,3.459,7.726,7.726C105.282,328.246,101.822,331.706,97.555,331.706z"/>
</g>
<path style="fill:#FD9E28;" d="M66.053,270.537c-0.011,0-0.021,0-0.032,0l-0.122-0.001c-4.267-0.018-7.712-3.491-7.695-7.758
	c0.018-4.257,3.473-7.695,7.726-7.695c0.011,0,0.021,0,0.032,0l0.122,0.001c4.267,0.018,7.712,3.491,7.695,7.758
	C73.761,267.099,70.305,270.537,66.053,270.537z"/>
<path style="fill:#618BAA;" d="M273.884,93.777v78.572h-35.768V93.777c0-9.859,8.004-17.874,17.884-17.874
	c4.935,0,9.406,1.999,12.64,5.233C271.885,84.382,273.884,88.853,273.884,93.777z"/>
<rect x="238.12" y="147.2" style="fill:#4E7693;" width="35.768" height="25.15"/>
<path style="fill:#FC3E81;" d="M273.88,93.781v16.092h-35.76V93.781c0-9.865,8.003-17.88,17.88-17.88
	c4.932,0,9.409,1.997,12.639,5.241C271.882,84.385,273.88,88.849,273.88,93.781z"/>
<path style="fill:#618BAA;" d="M312.042,173.864v51.622H199.958v-51.622c0-7.902,6.397-14.299,14.289-14.299h83.507
	C305.644,159.565,312.042,165.962,312.042,173.864z"/>
<g>
	<path style="fill:#4E7693;" d="M227.639,213.917c-4.267,0-7.726-3.459-7.726-7.726v-20.963c0-4.267,3.459-7.726,7.726-7.726
		s7.726,3.459,7.726,7.726v20.963C235.365,210.458,231.906,213.917,227.639,213.917z"/>
	<path style="fill:#4E7693;" d="M256,213.917c-4.267,0-7.726-3.459-7.726-7.726v-20.963c0-4.267,3.459-7.726,7.726-7.726
		c4.268,0,7.726,3.459,7.726,7.726v20.963C263.726,210.458,260.268,213.917,256,213.917z"/>
	<path style="fill:#4E7693;" d="M284.361,213.917c-4.268,0-7.726-3.459-7.726-7.726v-20.963c0-4.267,3.459-7.726,7.726-7.726
		s7.726,3.459,7.726,7.726v20.963C292.088,210.458,288.629,213.917,284.361,213.917z"/>
	<rect x="199.96" y="193.83" style="fill:#4E7693;" width="112.08" height="31.657"/>
</g>
<path style="fill:#E3F4FF;" d="M343.555,228v262.191c0,12.043-9.766,21.809-21.819,21.809H190.264
	c-12.053,0-21.819-9.766-21.819-21.809V228c0-12.043,9.766-21.809,21.819-21.809h131.472
	C333.789,206.191,343.555,215.957,343.555,228z"/>
<path style="fill:#BDDFF4;" d="M343.555,228v262.191c0,12.043-9.766,21.809-21.819,21.809h-42.454
	c41.65-102.482,32.389-254.3,27.681-305.809h14.773C333.789,206.191,343.555,215.957,343.555,228z"/>
<rect x="168.44" y="287.02" style="fill:#FC3E81;" width="175.11" height="164.56"/>
<path style="fill:#F01054;" d="M343.555,287.019V451.58h-46.162c11.899-55.31,14.453-115.628,13.763-164.561L343.555,287.019
	L343.555,287.019z"/>
<g>
	<path style="fill:#E3F4FF;" d="M293.517,386.133H200.14c-4.267,0-7.726-3.459-7.726-7.726s3.459-7.726,7.726-7.726h93.377
		c4.268,0,7.726,3.459,7.726,7.726C301.243,382.674,297.785,386.133,293.517,386.133z"/>
	<path style="fill:#E3F4FF;" d="M231.704,407.607H200.14c-4.267,0-7.726-3.459-7.726-7.726s3.459-7.726,7.726-7.726h31.564
		c4.267,0,7.726,3.459,7.726,7.726S235.971,407.607,231.704,407.607z"/>
</g>
<path style="fill:#F01054;" d="M200.201,346.439c-0.011,0-0.022,0-0.032,0h-0.122c-4.268-0.018-7.712-3.491-7.695-7.758
	c0.018-4.257,3.473-7.695,7.726-7.695c0.011,0,0.022,0,0.032,0h0.122c4.268,0.018,7.712,3.491,7.695,7.758
	C207.909,343,204.454,346.439,200.201,346.439z"/>
<path style="fill:#BDDFF4;" d="M169.7,301.14c0,4.15-3.36,7.5-7.5,7.5h-3.19v-15h3.19C166.34,293.64,169.7,297,169.7,301.14z"/>
<g>
</g>
<g>
</g>
<g>
</g>
<g>
</g>
<g>
</g>
<g>
</g>
<g>
</g>
<g>
</g>
<g>
</g>
<g>
</g>
<g>
</g>
<g>
</g>
<g>
</g>
<g>
</g>
<g>
</g>
</svg>
